<svg width="33" height="33" viewBox="0 0 33 33" fill="none" xmlns="http://www.w3.org/2000/svg">
<path fill-rule="evenodd" clip-rule="evenodd" d="M18.054 9.83074L20.6884 7.19634C21.8395 6.04524 22.4151 5.46969 23.1195 5.39571C23.2584 5.38112 23.3984 5.38112 23.5373 5.39571C24.2418 5.46969 24.8173 6.04524 25.9684 7.19634C27.1195 8.34744 27.6951 8.92298 27.769 9.62743C27.7836 9.76632 27.7836 9.90636 27.769 10.0452C27.6951 10.7497 27.1195 11.3252 25.9684 12.4763L23.3632 15.0815C21.1647 13.8139 19.3379 12.0008 18.054 9.83074ZM16.5997 11.2851L7.02478 20.86C6.59972 21.285 6.38719 21.4976 6.24746 21.7586C6.10772 22.0197 6.04878 22.3145 5.93089 22.9039L4.99549 27.5809C4.92897 27.9135 4.89571 28.0798 4.99032 28.1744C5.08493 28.269 5.25123 28.2358 5.58384 28.1693L10.2608 27.2339C10.8503 27.116 11.145 27.057 11.4061 26.9173C11.6672 26.7776 11.8797 26.565 12.3048 26.14L21.9051 16.5396C19.7575 15.2077 17.945 13.4078 16.5997 11.2851Z" fill="white"/>
</svg>
