<svg width="33" height="32" viewBox="0 0 33 32" fill="none" xmlns="http://www.w3.org/2000/svg">
<path d="M10.1289 2.79484V7.51484C10.1289 8.63495 10.1289 9.195 10.3469 9.62282C10.5386 9.99915 10.8446 10.3051 11.2209 10.4969C11.6487 10.7148 12.2088 10.7148 13.3289 10.7148H20.6889" stroke="white" stroke-width="2"/>
<path d="M10.1289 6.75504V20.715C10.1289 21.8351 10.1289 22.3952 10.3469 22.823C10.5386 23.1993 10.8446 23.5053 11.2209 23.6971C11.6487 23.915 12.2088 23.915 13.3289 23.915H20.6889" stroke="white" stroke-width="2"/>
<path d="M20.6885 21.5551C20.6885 20.995 20.6885 20.715 20.7975 20.5011C20.8933 20.3129 21.0463 20.1599 21.2345 20.0641C21.4484 19.9551 21.7284 19.9551 22.2885 19.9551H23.3285L24.6485 21.2751H27.0085C27.5685 21.2751 27.8486 21.2751 28.0625 21.3841C28.2506 21.4799 28.4036 21.6329 28.4995 21.8211C28.6085 22.035 28.6085 22.315 28.6085 22.8751V26.2751C28.6085 26.8351 28.6085 27.1152 28.4995 27.3291C28.4036 27.5172 28.2506 27.6702 28.0625 27.7661C27.8486 27.8751 27.5685 27.8751 27.0085 27.8751H22.2885C21.7284 27.8751 21.4484 27.8751 21.2345 27.7661C21.0463 27.6702 20.8933 27.5172 20.7975 27.3291C20.6885 27.1152 20.6885 26.8351 20.6885 26.2751V21.5551Z" stroke="white" stroke-width="2" stroke-linejoin="round"/>
<path d="M20.6885 8.35488C20.6885 7.79483 20.6885 7.5148 20.7975 7.30089C20.8933 7.11273 21.0463 6.95975 21.2345 6.86388C21.4484 6.75488 21.7284 6.75488 22.2885 6.75488H23.3285L24.6485 8.07488H27.0085C27.5685 8.07488 27.8486 8.07488 28.0625 8.18388C28.2506 8.27975 28.4036 8.43273 28.4995 8.62089C28.6085 8.8348 28.6085 9.11483 28.6085 9.67488V13.0749C28.6085 13.6349 28.6085 13.915 28.4995 14.1289C28.4036 14.317 28.2506 14.47 28.0625 14.5659C27.8486 14.6749 27.5685 14.6749 27.0085 14.6749H22.2885C21.7284 14.6749 21.4484 14.6749 21.2345 14.5659C21.0463 14.47 20.8933 14.317 20.7975 14.1289C20.6885 13.915 20.6885 13.6349 20.6885 13.0749V8.35488Z" stroke="white" stroke-width="2" stroke-linejoin="round"/>
</svg>
