<svg width="33" height="33" viewBox="0 0 33 33" fill="none" xmlns="http://www.w3.org/2000/svg">
<path fill-rule="evenodd" clip-rule="evenodd" d="M16.7287 0.875977C7.98048 0.875977 0.888672 7.96779 0.888672 16.716C0.888672 25.4642 7.98048 32.556 16.7287 32.556H24.6487C27.1088 32.556 28.3389 32.556 29.3092 32.1541C30.603 31.6182 31.6309 30.5903 32.1668 29.2965C32.5687 28.3262 32.5687 27.0961 32.5687 24.636V16.716C32.5687 7.96779 25.4769 0.875977 16.7287 0.875977ZM16.7279 22.9962C16.1756 22.9962 15.7279 22.5485 15.7279 21.9962V17.7162H11.4479C10.8956 17.7162 10.4479 17.2685 10.4479 16.7162C10.4479 16.1639 10.8956 15.7162 11.4479 15.7162H15.7279V11.4362C15.7279 10.8839 16.1756 10.4362 16.7279 10.4362C17.2802 10.4362 17.7279 10.8839 17.7279 11.4362V15.7162H22.0079C22.5602 15.7162 23.0079 16.1639 23.0079 16.7162C23.0079 17.2685 22.5602 17.7162 22.0079 17.7162H17.7279V21.9962C17.7279 22.5485 17.2802 22.9962 16.7279 22.9962Z" fill="white"/>
</svg>
