<svg width="33" height="33" viewBox="0 0 33 33" fill="none" xmlns="http://www.w3.org/2000/svg">
<path d="M13.2765 27.6062V23.5699C13.2765 22.5396 14.1622 21.7044 15.2547 21.7044H19.2483C19.7729 21.7044 20.2761 21.9009 20.6471 22.2508C21.018 22.6006 21.2265 23.0752 21.2265 23.5699V27.6062C21.2231 28.0345 21.4012 28.4464 21.7213 28.7504C22.0413 29.0544 22.4767 29.2254 22.9309 29.2254H25.6555C26.928 29.2285 28.1495 28.7539 29.0505 27.9064C29.9515 27.0589 30.4578 25.9082 30.4578 24.7081V13.2095C30.4578 12.2401 30.0022 11.3206 29.2137 10.6986L19.945 3.71735C18.3327 2.49329 16.0226 2.53282 14.4584 3.81121L5.40127 10.6986C4.57553 11.3022 4.08201 12.2245 4.05762 13.2095V24.6963C4.05762 27.1976 6.20768 29.2254 8.85992 29.2254H11.5223C12.4657 29.2254 13.2324 28.5076 13.2392 27.6179L13.2765 27.6062Z" fill="white"/>
</svg>
