<svg width="27" height="26" viewBox="0 0 27 26" fill="none" xmlns="http://www.w3.org/2000/svg">
<path d="M13.4361 2.54785C7.62801 2.54785 2.87598 7.29989 2.87598 13.1079C2.87598 18.916 7.62801 23.668 13.4361 23.668C19.2441 23.668 23.9961 18.916 23.9961 13.1079C23.9961 7.29989 19.2441 2.54785 13.4361 2.54785ZM13.4361 19.3384C10.0568 19.3384 7.20561 16.5928 7.20561 13.1079C7.20561 11.3127 8.05041 9.5175 9.42322 8.35589C9.84563 8.03909 10.5848 8.03909 10.9016 8.46149C11.324 8.9895 11.2184 9.6231 10.796 10.0455C9.84563 10.7847 9.31762 11.9463 9.31762 13.2135C9.31762 15.4311 11.1128 17.332 13.4361 17.332C15.7593 17.332 17.5545 15.5367 17.5545 13.2135C17.5545 12.0519 17.0265 10.8903 16.0761 10.0455C15.6537 9.7287 15.5481 8.9895 15.9705 8.56709C16.3929 8.14469 17.0265 8.03909 17.4489 8.46149C18.8217 9.6231 19.6665 11.4183 19.6665 13.2135C19.6665 16.5928 16.8153 19.3384 13.4361 19.3384ZM13.4361 6.24388C13.9641 6.24388 14.4921 6.66628 14.4921 7.29989V11.2071C14.4921 11.7351 13.9641 12.2631 13.4361 12.2631C12.9081 12.2631 12.38 11.7351 12.38 11.2071V7.29989C12.38 6.66628 12.9081 6.24388 13.4361 6.24388Z" fill="#E94545"/>
</svg>
