<svg width="22" height="23" viewBox="0 0 22 23" fill="none" xmlns="http://www.w3.org/2000/svg">
<path d="M10.833 20.2837C8.45697 20.2837 6.16895 19.4037 4.40894 17.6437C0.888911 14.1236 0.888911 8.5796 4.32094 5.14758C5.55294 3.82757 7.22496 2.94756 9.07297 2.68356C9.42497 2.59556 9.77698 2.77156 9.95298 3.12356C10.129 3.47556 10.129 3.82757 9.86498 4.09157C7.92896 6.29158 8.10496 9.72361 10.217 11.8356C12.329 13.9476 15.673 14.1236 17.873 12.1876C18.137 11.9236 18.577 11.9236 18.841 12.0996C19.193 12.2756 19.369 12.6276 19.281 12.9796C19.017 14.8276 18.137 16.4117 16.905 17.7317C15.233 19.4037 13.033 20.2837 10.833 20.2837Z" fill="white"/>
</svg>
