<svg width="33" height="32" viewBox="0 0 33 32" fill="none" xmlns="http://www.w3.org/2000/svg">
<g clip-path="url(#clip0_66_580)">
<path d="M13.533 27.3658C14.3055 27.2024 19.013 27.2024 19.7856 27.3658C20.446 27.5183 21.1602 27.8748 21.1602 28.653C21.1218 29.3939 20.6872 30.0507 20.0866 30.4678C19.3079 31.0748 18.3941 31.4593 17.4387 31.5978C16.9104 31.6663 16.3913 31.6678 15.8814 31.5978C14.9245 31.4593 14.0106 31.0748 13.2335 30.4662C12.6314 30.0507 12.1967 29.3939 12.1584 28.653C12.1584 27.8748 12.8725 27.5183 13.533 27.3658ZM16.7505 0.742188C19.9651 0.742188 23.2489 2.2675 25.1994 4.79828C26.465 6.42788 27.0456 8.05592 27.0456 10.5867V11.2451C27.0456 13.186 27.5586 14.33 28.6875 15.6483C29.5429 16.6195 29.8163 17.8662 29.8163 19.2187C29.8163 20.5697 29.3725 21.8522 28.4832 22.8935C27.319 24.1418 25.6771 24.9387 24.0015 25.0772C21.5732 25.2842 19.1434 25.4585 16.6814 25.4585C14.2178 25.4585 11.7896 25.3543 9.36134 25.0772C7.68415 24.9387 6.04228 24.1418 4.87961 22.8935C3.99033 21.8522 3.54492 20.5697 3.54492 19.2187C3.54492 17.8662 3.81985 16.6195 4.6738 15.6483C5.83801 14.33 6.3172 13.186 6.3172 11.2451V10.5867C6.3172 7.98744 6.96535 6.2878 8.30004 4.62396C10.2844 2.19746 13.4652 0.742188 16.6123 0.742188H16.7505Z" fill="white"/>
</g>
<defs>
<clipPath id="clip0_66_580">
<rect width="31.6802" height="31.6802" fill="white" transform="translate(0.888672 0.236328)"/>
</clipPath>
</defs>
</svg>
