<svg width="33" height="33" viewBox="0 0 33 33" fill="none" xmlns="http://www.w3.org/2000/svg">
<g clip-path="url(#clip0_66_544)">
<path fill-rule="evenodd" clip-rule="evenodd" d="M17.256 0V9.088L17.256 9.14241C17.2559 9.56648 17.2558 9.9786 17.3015 10.3185C17.353 10.7017 17.4786 11.139 17.8418 11.5022C18.205 11.8654 18.6423 11.991 19.0255 12.0425C19.3654 12.0882 19.7775 12.0881 20.2016 12.088L20.256 12.088H29.344V22.176C29.344 26.6562 29.344 28.8963 27.9522 30.2882C26.5603 31.68 24.3202 31.68 19.84 31.68H13.504C9.02377 31.68 6.78366 31.68 5.39183 30.2882C4 28.8963 4 26.6562 4 22.176V9.504C4 5.02377 4 2.78366 5.39183 1.39183C6.78366 0 9.02377 0 13.504 0H17.256ZM19.256 0.000471241V9.088C19.256 9.58767 19.2581 9.86183 19.2837 10.052L19.2847 10.0593L19.292 10.0603C19.4822 10.0859 19.7563 10.088 20.256 10.088H29.3435C29.3402 9.08866 29.3139 8.52929 29.1028 8.01989C28.8617 7.4377 28.4039 6.97988 27.4882 6.06424L27.4882 6.06423L23.2798 1.85577C22.3641 0.940123 21.9063 0.482299 21.3241 0.24115C20.8147 0.0301489 20.2553 0.00376927 19.256 0.000471241Z" fill="white"/>
</g>
<defs>
<clipPath id="clip0_66_544">
<rect width="31.6802" height="31.6802" fill="white" transform="translate(0.888672 0.43457)"/>
</clipPath>
</defs>
</svg>
