<svg width="33" height="32" viewBox="0 0 33 32" fill="none" xmlns="http://www.w3.org/2000/svg">
<path fill-rule="evenodd" clip-rule="evenodd" d="M7.96933 2.71484C5.57641 2.71484 3.5293 4.71137 3.5293 7.11487V10.0764C3.5293 12.6443 5.60735 14.4317 7.87648 14.5917C7.90738 14.5938 7.93835 14.5949 7.96933 14.5949H10.9694C13.3623 14.5949 15.4094 12.5984 15.4094 10.1949V7.11487C15.4094 4.77912 13.5491 2.71484 11.0894 2.71484H7.96933ZM22.4894 2.71484C20.0965 2.71484 18.0494 4.71137 18.0494 7.11487V10.1949C18.0494 12.5984 20.0965 14.5949 22.4894 14.5949H25.4895C27.8824 14.5949 29.9295 12.5984 29.9295 10.1949V7.11487C29.9295 4.77912 28.0692 2.71484 25.6095 2.71484H22.4894ZM7.96933 17.2349C5.57641 17.2349 3.5293 19.2315 3.5293 21.635V24.715C3.5293 27.1948 5.64096 28.9541 7.87648 29.1118C7.90738 29.1139 7.93835 29.115 7.96933 29.115H10.9694C13.3623 29.115 15.4094 27.1185 15.4094 24.715V21.635C15.4094 19.2992 13.5491 17.2349 11.0894 17.2349H7.96933ZM22.4894 17.2349C20.0965 17.2349 18.0494 19.2315 18.0494 21.635V24.715C18.0494 27.1185 20.0965 29.115 22.4894 29.115H25.4895C27.8824 29.115 29.9295 27.1185 29.9295 24.715V21.635C29.9295 19.2992 28.0692 17.2349 25.6095 17.2349H22.4894Z" fill="#4D76FF"/>
</svg>
