<svg width="33" height="33" viewBox="0 0 33 33" fill="none" xmlns="http://www.w3.org/2000/svg">
<g clip-path="url(#clip0_66_593)">
<path fill-rule="evenodd" clip-rule="evenodd" d="M1 8.99903C1 5.22779 1 3.34217 2.17157 2.1706C3.34315 0.999023 5.22876 0.999023 9 0.999023H24.68C28.4512 0.999023 30.3369 0.999023 31.5084 2.1706C32.68 3.34217 32.68 5.22779 32.68 8.99902V24.679C32.68 28.4503 32.68 30.3359 31.5084 31.5075C30.3369 32.679 28.4512 32.679 24.68 32.679H9C5.22876 32.679 3.34315 32.679 2.17157 31.5075C1 30.3359 1 28.4503 1 24.679V8.99903ZM10.4455 24.3456C12.28 22.938 14.5276 22.175 16.8399 22.175C19.1522 22.175 21.3999 22.938 23.2344 24.3456C25.0688 25.7533 26.3876 27.7269 26.986 29.9604C27.129 30.4939 26.8124 31.0422 26.2789 31.1851C25.7454 31.3281 25.1971 31.0115 25.0542 30.478C24.5697 28.6698 23.502 27.072 22.0168 25.9323C20.5317 24.7927 18.712 24.175 16.8399 24.175C14.9679 24.175 13.1482 24.7927 11.663 25.9323C10.1779 27.072 9.11022 28.6698 8.6257 30.478C8.48276 31.0115 7.93443 31.3281 7.40096 31.1851C6.86749 31.0422 6.55091 30.4939 6.69385 29.9604C7.29232 27.7269 8.61105 25.7533 10.4455 24.3456ZM13.0879 12.087C13.0879 10.0149 14.7677 8.33502 16.8399 8.33502C18.9121 8.33502 20.5919 10.0149 20.5919 12.087C20.5919 14.1592 18.9121 15.839 16.8399 15.839C14.7677 15.839 13.0879 14.1592 13.0879 12.087ZM16.8399 6.33502C13.6631 6.33502 11.0879 8.91028 11.0879 12.087C11.0879 15.2638 13.6631 17.839 16.8399 17.839C20.0166 17.839 22.5919 15.2638 22.5919 12.087C22.5919 8.91028 20.0166 6.33502 16.8399 6.33502Z" fill="white"/>
</g>
<defs>
<clipPath id="clip0_66_593">
<rect width="31.6802" height="31.6802" fill="white" transform="translate(0.888672 0.957031)"/>
</clipPath>
</defs>
</svg>
