<svg width="30" height="31" viewBox="0 0 30 31" fill="none" xmlns="http://www.w3.org/2000/svg">
<g clip-path="url(#clip0_38_729)">
<path d="M13.4062 20.5723C14.8036 20.5723 16.1132 20.1504 17.2031 19.4297L21.0527 23.2881C21.3075 23.5342 21.6327 23.6572 21.9843 23.6572C22.7138 23.6572 23.2499 23.0859 23.2499 22.3652C23.2499 22.0312 23.1357 21.7061 22.8896 21.46L19.0663 17.6191C19.8574 16.4941 20.3232 15.1318 20.3232 13.6553C20.3232 9.84961 17.2118 6.73828 13.4062 6.73828C9.60931 6.73828 6.48919 9.84961 6.48919 13.6553C6.48919 17.4609 9.60052 20.5723 13.4062 20.5723ZM13.4062 18.7266C10.62 18.7266 8.33489 16.4414 8.33489 13.6553C8.33489 10.8691 10.62 8.58398 13.4062 8.58398C16.1923 8.58398 18.4775 10.8691 18.4775 13.6553C18.4775 16.4414 16.1923 18.7266 13.4062 18.7266Z" fill="#3C3C43"/>
</g>
<defs>
<clipPath id="clip0_38_729">
<rect width="29.5682" height="29.5682" fill="white" transform="translate(0.0898438 0.539062)"/>
</clipPath>
</defs>
</svg>
