<svg width="33" height="33" viewBox="0 0 33 33" fill="none" xmlns="http://www.w3.org/2000/svg">
<g clip-path="url(#clip0_66_551)">
<path fill-rule="evenodd" clip-rule="evenodd" d="M1.87868 3.87868C1 4.75736 1 6.17157 1 8.99999V25.512C1 28.3404 1 29.7546 1.87868 30.6333C2.75736 31.512 4.17157 31.512 7 31.512H26.68C29.5084 31.512 30.9226 31.512 31.8013 30.6333C32.68 29.7546 32.68 28.3404 32.68 25.512V9C32.68 6.17157 32.68 4.75736 31.8013 3.87868C30.9226 3 29.5084 3 26.68 3H7C4.17157 3 2.75736 3 1.87868 3.87868ZM24.176 11.0041C25.0044 11.0041 25.676 11.6757 25.676 12.5041V25.1761C25.676 26.0045 25.0044 26.6761 24.176 26.6761C23.3475 26.6761 22.676 26.0045 22.676 25.1761V12.5041C22.676 11.6757 23.3475 11.0041 24.176 11.0041ZM11.0041 15.672C11.0041 14.8436 10.3325 14.172 9.50408 14.172C8.67565 14.172 8.00408 14.8436 8.00408 15.672V25.176C8.00408 26.0045 8.67565 26.676 9.50408 26.676C10.3325 26.676 11.0041 26.0045 11.0041 25.176V15.672ZM18.3401 18.8401C18.3401 18.0117 17.6685 17.3401 16.8401 17.3401C16.0117 17.3401 15.3401 18.0117 15.3401 18.8401V25.1761C15.3401 26.0045 16.0117 26.6761 16.8401 26.6761C17.6685 26.6761 18.3401 26.0045 18.3401 25.1761V18.8401Z" fill="white"/>
</g>
<defs>
<clipPath id="clip0_66_551">
<rect width="31.6802" height="31.6802" fill="white" transform="translate(0.888672 0.794922)"/>
</clipPath>
</defs>
</svg>
