<svg width="22" height="23" viewBox="0 0 22 23" fill="none" xmlns="http://www.w3.org/2000/svg">
<g clip-path="url(#clip0_38_708)">
<path d="M11.345 5.5C8.17702 5.5 5.625 8.05202 5.625 11.22C5.625 14.3881 8.17702 16.9401 11.345 16.9401C14.5131 16.9401 17.0651 14.3881 17.0651 11.22C17.0651 8.05202 14.5131 5.5 11.345 5.5Z" fill="#B8BFCC"/>
<path d="M11.3449 4.97271C11.8729 4.97271 12.2249 4.62071 12.2249 4.0927V2.68469C12.2249 2.15669 11.8729 1.80469 11.3449 1.80469C10.8168 1.80469 10.4648 2.15669 10.4648 2.68469V4.0927C10.4648 4.53271 10.8168 4.97271 11.3449 4.97271Z" fill="#B8BFCC"/>
<path d="M5.44978 6.82144C5.62578 6.99744 5.88979 7.08544 6.06579 7.08544C6.24179 7.08544 6.50579 6.99744 6.68179 6.82144C7.03379 6.46944 7.03379 5.94143 6.68179 5.58943L5.71378 4.62142C5.36178 4.26942 4.83378 4.26942 4.48178 4.62142C4.12977 4.97343 4.12977 5.50143 4.48178 5.85343L5.44978 6.82144Z" fill="#B8BFCC"/>
<path d="M4.83306 11.4845C4.83306 10.9565 4.48106 10.6045 3.95306 10.6045H2.54505C2.01704 10.6045 1.66504 10.9565 1.66504 11.4845C1.66504 12.0125 2.01704 12.3645 2.54505 12.3645H3.95306C4.39306 12.3645 4.83306 12.0125 4.83306 11.4845Z" fill="#B8BFCC"/>
<path d="M5.44978 16.1488L4.48178 17.1168C4.12977 17.4688 4.12977 17.9968 4.48178 18.3488C4.65778 18.5248 4.92178 18.6128 5.09778 18.6128C5.27378 18.6128 5.53778 18.5248 5.71378 18.3488L6.68179 17.3808C7.03379 17.0288 7.03379 16.5008 6.68179 16.1488C6.32979 15.7968 5.80179 15.7968 5.44978 16.1488Z" fill="#B8BFCC"/>
<path d="M11.3449 17.9971C10.8168 17.9971 10.4648 18.3491 10.4648 18.8771V20.2851C10.4648 20.8131 10.8168 21.1651 11.3449 21.1651C11.8729 21.1651 12.2249 20.8131 12.2249 20.2851V18.8771C12.2249 18.4371 11.8729 17.9971 11.3449 17.9971Z" fill="#B8BFCC"/>
<path d="M17.2411 16.1488C16.8891 15.7968 16.3611 15.7968 16.0091 16.1488C15.6571 16.5008 15.6571 17.0288 16.0091 17.3808L16.9771 18.3488C17.1531 18.5248 17.4171 18.6128 17.5931 18.6128C17.7691 18.6128 18.0331 18.5248 18.2091 18.3488C18.5611 17.9968 18.5611 17.4688 18.2091 17.1168L17.2411 16.1488Z" fill="#B8BFCC"/>
<path d="M20.1454 10.6045H18.7374C18.2094 10.6045 17.8574 10.9565 17.8574 11.4845C17.8574 12.0125 18.2094 12.3645 18.7374 12.3645H20.1454C20.6734 12.3645 21.0254 12.0125 21.0254 11.4845C21.0254 10.9565 20.6734 10.6045 20.1454 10.6045Z" fill="#B8BFCC"/>
<path d="M16.6251 7.08544C16.8891 7.08544 17.0651 6.99744 17.2411 6.82144L18.2091 5.85343C18.5611 5.50143 18.5611 4.97343 18.2091 4.62142C17.8571 4.26942 17.3291 4.26942 16.9771 4.62142L16.0091 5.58943C15.6571 5.94143 15.6571 6.46944 16.0091 6.82144C16.1851 6.99744 16.3611 7.08544 16.6251 7.08544Z" fill="#B8BFCC"/>
</g>
<defs>
<clipPath id="clip0_38_708">
<rect width="21.1202" height="21.1201" fill="white" transform="translate(0.785156 0.923828)"/>
</clipPath>
</defs>
</svg>
